HIERARCHY
ROOT Hips
{
 OFFSET 0.000000 0.000000 0.000000
 CHANNELS 6 Xposition Yposition Zposition Yrotation Xrotation Zrotation
 JOINT Chest
 {
  OFFSET 0.000000 9.585900 0.002600
  CHANNELS 3 Yrotation Xrotation Zrotation
  JOINT Chest2
  {
   OFFSET 0.000000 9.601200 -0.005300
   CHANNELS 3 Yrotation Xrotation Zrotation
   JOINT Chest3
   {
    OFFSET 0.000000 9.561800 0.000000
    CHANNELS 3 Yrotation Xrotation Zrotation
    JOINT Chest4
    {
     OFFSET 0.000000 9.552100 0.000000
     CHANNELS 3 Yrotation Xrotation Zrotation
     JOINT Neck
     {
      OFFSET 0.000000 14.453000 0.000000
      CHANNELS 3 Yrotation Xrotation Zrotation
      JOINT Head
      {
       OFFSET 0.000000 8.936500 -0.011300
       CHANNELS 3 Yrotation Xrotation Zrotation
       End Site
       {
        OFFSET 0.000000 17.073600 -0.006000
       }
      }
     }
     JOINT RightCollar
     {
      OFFSET -2.921100 9.558500 0.000000
      CHANNELS 3 Yrotation Xrotation Zrotation
      JOINT RightShoulder
      {
       OFFSET -13.519700 0.000000 0.000000
       CHANNELS 3 Yrotation Xrotation Zrotation
       JOINT RightElbow
       {
        OFFSET 0.000000 -29.696600 0.000000
        CHANNELS 3 Yrotation Xrotation Zrotation
        JOINT RightWrist
        {
         OFFSET 0.000000 -24.004700 0.000000
         CHANNELS 3 Yrotation Xrotation Zrotation
         End Site
         {
          OFFSET 0.000000 -17.728500 0.000000
         }
        }
       }
      }
     }
     JOINT LeftCollar
     {
      OFFSET 2.921100 9.558500 0.000000
      CHANNELS 3 Yrotation Xrotation Zrotation
      JOINT LeftShoulder
      {
       OFFSET 13.519700 0.000000 0.000000
       CHANNELS 3 Yrotation Xrotation Zrotation
       JOINT LeftElbow
       {
        OFFSET 0.000000 -29.696600 0.000000
        CHANNELS 3 Yrotation Xrotation Zrotation
        JOINT LeftWrist
        {
         OFFSET 0.000000 -24.004700 0.000000
         CHANNELS 3 Yrotation Xrotation Zrotation
         End Site
         {
          OFFSET 0.000000 -17.728500 0.000000
         }
        }
       }
      }
     }
    }
   }
  }
 }
 JOINT RightHip
 {
  OFFSET -7.771700 -0.012900 -0.001300
  CHANNELS 3 Yrotation Xrotation Zrotation
  JOINT RightKnee
  {
   OFFSET 0.000000 -40.869800 0.001200
   CHANNELS 3 Yrotation Xrotation Zrotation
   JOINT RightAnkle
   {
    OFFSET 0.000000 -39.717900 0.002100
    CHANNELS 3 Yrotation Xrotation Zrotation
    JOINT RightToe
    {
     OFFSET 0.000000 -4.965400 11.033500
     CHANNELS 3 Yrotation Xrotation Zrotation
     End Site
     {
      OFFSET 0.000000 -1.423100 5.872300
     }
    }
   }
  }
 }
 JOINT LeftHip
 {
  OFFSET 7.771700 -0.012900 -0.001300
  CHANNELS 3 Yrotation Xrotation Zrotation
  JOINT LeftKnee
  {
   OFFSET 0.000000 -40.869800 0.001200
   CHANNELS 3 Yrotation Xrotation Zrotation
   JOINT LeftAnkle
   {
    OFFSET 0.000000 -39.717900 0.002100
    CHANNELS 3 Yrotation Xrotation Zrotation
    JOINT LeftToe
    {
     OFFSET 0.000000 -4.965400 11.033500
     CHANNELS 3 Yrotation Xrotation Zrotation
     End Site
     {
      OFFSET 0.000000 -1.423100 5.872300
     }
    }
   }
  }
 }
}
MOTION
Frames: 9
Frame Time: 0.008333
-43.724103 46.745351 12.987335 177.451018 -32.163016 -2.866661 -0.633784 18.177377 1.180060 -0.106832 2.052319 0.180368 -0.155051 3.361740 0.264739 -0.621032 15.846931 1.242920 0.104991 16.416496 -1.254855 0.634692 -5.310032 -2.373986 1.103185 0.805418 -2.062343 8.447652 -8.851979 -17.791184 -83.415196 -75.249043 130.514702 2.959217 7.608723 -19.097248 -0.633169 -0.113789 1.575304 -4.804988 -3.117269 15.294308 105.068149 -77.010329 -142.055608 -6.399341 15.194864 6.726408 0.004910 -55.199792 -9.005333 -148.853130 78.351963 -140.401526 -8.252693 -12.651523 -4.726325 -0.099120 -0.279761 0.001498 1.115808 -56.722516 10.172324 -109.837971 81.485191 -114.478576 4.293879 -6.568774 6.481872 0.113828 0.222475 0.026939
-43.735943 46.736336 12.987638 177.431779 -32.135284 -2.870631 -0.623237 18.167929 1.205957 -0.107357 2.050463 0.182264 -0.150843 3.353917 0.258339 -0.622451 15.855405 1.267790 0.110737 16.450077 -1.217993 0.631354 -5.255874 -2.322878 1.097899 0.799335 -2.084451 8.446401 -8.845545 -17.768453 -83.452007 -75.256055 130.559488 2.966267 7.596995 -19.110194 -0.631786 -0.128731 1.560791 -4.820626 -3.116819 15.312431 105.073676 -77.004880 -142.048764 -6.425368 15.201610 6.737936 0.013514 -55.223117 -8.992423 -148.970992 78.392875 -140.516699 -8.280874 -12.640039 -4.758560 -0.079157 -0.238637 0.019617 1.108495 -56.755240 10.173687 -109.927864 81.499565 -114.552597 4.283353 -6.580022 6.474273 0.131597 0.229715 0.029178
-43.746252 46.727654 12.988137 177.420004 -32.107646 -2.878627 -0.619941 18.156357 1.232745 -0.102494 2.042386 0.175076 -0.162035 3.375408 0.283413 -0.619395 15.843099 1.265973 0.114817 16.472346 -1.194740 0.631602 -5.194175 -2.256297 1.100975 0.792554 -2.099236 8.446788 -8.841668 -17.761188 -83.479982 -75.273925 130.588382 2.959788 7.570918 -19.115777 -0.624429 -0.136415 1.606849 -4.826670 -3.131732 15.270649 105.078500 -77.000679 -142.050110 -6.430593 15.197560 6.743275 0.042365 -55.238383 -8.994941 -149.063570 78.436564 -140.589654 -8.322087 -12.637141 -4.785557 -0.049870 -0.208545 0.033823 1.090658 -56.787284 10.164384 -110.050671 81.530315 -114.659949 4.305278 -6.593094 6.468237 0.115896 0.236424 0.023490
-43.753575 46.719815 12.987897 177.407455 -32.088195 -2.893707 -0.611878 18.152472 1.264305 -0.098431 2.034629 0.170400 -0.167468 3.388702 0.297707 -0.618394 15.835279 1.267022 0.122301 16.499322 -1.162863 0.630224 -5.156280 -2.213483 1.106178 0.791119 -2.102137 8.447475 -8.846485 -17.774797 -83.480027 -75.240523 130.587751 2.946556 7.541136 -19.126101 -0.614632 -0.147651 1.611123 -4.831873 -3.135711 15.280648 105.080678 -76.997833 -142.052768 -6.435571 15.194805 6.742119 0.052918 -55.253639 -8.964360 -149.101820 78.464363 -140.617929 -8.384814 -12.621186 -4.790735 -0.015270 -0.201896 0.036959 1.060484 -56.810752 10.187123 -110.155492 81.551462 -114.753301 4.299453 -6.604507 6.464385 0.126757 0.243674 0.019128
-43.761804 46.711821 12.987671 177.387147 -32.069918 -2.889455 -0.603631 18.147625 1.280792 -0.098581 2.035594 0.171931 -0.161631 3.382688 0.291773 -0.618573 15.830963 1.265675 0.136112 16.536942 -1.115735 0.627715 -5.123040 -2.170777 1.124727 0.808028 -2.068304 8.446177 -8.857436 -17.783168 -83.469475 -75.236018 130.573576 2.964992 7.553385 -19.132989 -0.606415 -0.149211 1.639561 -4.827182 -3.141323 15.279392 105.079498 -76.999462 -142.058517 -6.442415 15.193108 6.731376 0.066267 -55.275672 -8.951845 -149.156592 78.482599 -140.676429 -8.415783 -12.608425 -4.811782 -0.007968 -0.200645 0.057139 1.060023 -56.832372 10.188941 -110.244932 81.566812 -114.837266 4.293189 -6.613549 6.455594 0.134885 0.248817 0.021076
-43.769195 46.703775 12.987377 177.369181 -32.053610 -2.883026 -0.597465 18.162065 1.305861 -0.094352 2.020545 0.160978 -0.159568 3.376140 0.286604 -0.613609 15.846679 1.289813 0.140013 16.554764 -1.095868 0.624492 -5.093623 -2.127814 1.126285 0.787950 -2.090072 8.450341 -8.857023 -17.758803 -83.442417 -75.197992 130.558600 3.007939 7.583222 -19.155251 -0.606608 -0.171474 1.653347 -4.817060 -3.147671 15.259852 105.076078 -77.000598 -142.064594 -6.458884 15.199621 6.715336 0.077777 -55.293455 -8.946903 -149.172994 78.490062 -140.695737 -8.423403 -12.605555 -4.829456 -0.004317 -0.195762 0.069083 1.060824 -56.852576 10.190080 -110.313315 81.575986 -114.906782 4.291558 -6.618613 6.456343 0.125109 0.249456 0.024319
-43.776867 46.695720 12.986703 177.347220 -32.040902 -2.866108 -0.582602 18.160574 1.310240 -0.098046 2.027548 0.165039 -0.156727 3.400295 0.306212 -0.606280 15.851999 1.304465 0.132999 16.548660 -1.094234 0.614206 -5.100707 -2.127179 1.120920 0.744535 -2.126163 8.474170 -8.857140 -17.691459 -83.401609 -75.253138 130.498857 2.997511 7.574901 -19.162115 -0.619487 -0.220275 1.625963 -4.812046 -3.149505 15.251047 105.074350 -77.000225 -142.066693 -6.470219 15.206628 6.707094 0.108481 -55.316210 -8.959698 -149.264749 78.506776 -140.792651 -8.459748 -12.580496 -4.829156 -0.004199 -0.206730 0.061096 1.076507 -56.868773 10.177459 -110.386755 81.579078 -114.975914 4.274992 -6.627334 6.460717 0.129522 0.250443 0.027579
-43.786689 46.687074 12.986430 177.325208 -32.025116 -2.831638 -0.572172 18.147538 1.289941 -0.097248 2.041640 0.176870 -0.156749 3.403107 0.307454 -0.598296 15.867366 1.320573 0.132448 16.554036 -1.078650 0.603759 -5.108133 -2.124557 1.143475 0.724953 -2.115080 8.468503 -8.866716 -17.694474 -83.370373 -75.262504 130.462866 2.991060 7.569823 -19.183956 -0.629741 -0.256728 1.614617 -4.791137 -3.149226 15.271782 105.072274 -76.996826 -142.077230 -6.458652 15.195671 6.695282 0.162848 -55.348528 -9.031633 -149.504115 78.533601 -141.038126 -8.445962 -12.534683 -4.822608 -0.027794 -0.235054 0.035605 1.118586 -56.887130 10.133136 -110.440212 81.583880 -115.024640 4.262406 -6.629358 6.447889 0.147465 0.249532 0.038255
-43.792150 46.680022 12.984205 177.307648 -32.026273 -2.821590 -0.558710 18.162002 1.301367 -0.095273 2.055969 0.189806 -0.156197 3.394593 0.299034 -0.600855 15.861543 1.315938 0.135042 16.560273 -1.068060 0.612990 -5.063088 -2.064637 1.148170 0.713811 -2.116592 8.485648 -8.869524 -17.666239 -83.333688 -75.265262 130.424661 2.985939 7.569217 -19.193383 -0.630520 -0.269261 1.641884 -4.749912 -3.140700 15.309784 105.072149 -76.984766 -142.101376 -6.441922 15.169445 6.674508 0.179242 -55.354505 -9.055479 -149.611060 78.545166 -141.147954 -8.413148 -12.500579 -4.814823 -0.049144 -0.257692 0.011027 1.122130 -56.888786 10.131117 -110.552467 81.591092 -115.125974 4.244146 -6.642698 6.426375 0.176434 0.253707 0.050035
